<?xml version="1.0" encoding="UTF-8"?>
<svg id="Layer_1" xmlns="http://www.w3.org/2000/svg" version="1.1" viewBox="0 0 164.93 164.92">
  <!-- Generator: Adobe Illustrator 30.1.0, SVG Export Plug-In . SVG Version: 2.1.1 Build 136)  -->
  <defs>
    <style>
      .st0 {
        fill: #f37021;
      }

      .st1 {
        fill: #034ea2;
      }
    </style>
  </defs>
  <g>
    <path class="st1" d="M60.42,121.32v4.49h-2.87v-12.78h4.84c1.4,0,2.52.39,3.36,1.18.83.78,1.25,1.8,1.25,3.05s-.41,2.24-1.24,2.97-1.97,1.09-3.43,1.09h-1.91ZM60.42,119.17h1.97c.55,0,.97-.16,1.27-.48.3-.32.45-.79.45-1.4s-.15-1.15-.46-1.52c-.31-.38-.72-.57-1.23-.57h-2v3.99Z"/>
    <path class="st1" d="M78.57,121.32v4.49h-2.87v-12.78h4.84c1.4,0,2.52.39,3.36,1.18.83.78,1.25,1.8,1.25,3.05s-.41,2.24-1.24,2.97-1.97,1.09-3.43,1.09h-1.91ZM78.57,119.17h1.97c.55,0,.97-.16,1.27-.48.3-.32.45-.79.45-1.4s-.15-1.15-.46-1.52c-.31-.38-.72-.57-1.23-.57h-2v3.99Z"/>
    <path class="st1" d="M97.6,113.03l2.68,9.24,2.67-9.24h3.74v12.78h-2.88v-3.46l.26-5.33-2.84,8.79h-1.95l-2.84-8.79.26,5.33v3.46h-2.87v-12.78h3.74Z"/>
  </g>
  <g>
    <path class="st0" d="M122.25,71.09c0,1.08-.1,2.13-.29,3.15-.62,3.46-2.26,6.57-4.59,9-3.2,3.33-7.7,5.41-12.68,5.41h-20.62l-1.09,3.14-1.49,4.34-.49,1.42-.8,2.3-1.69,4.91h-28.51l1.69-4.91.8-2.3h6.72l-.8,2.3h16.19l.8-2.3.49-1.42,1.49-4.34,1.09-3.14,1.87-5.41h24.93c6.37,0,11.89-3.66,14.57-9,1.11-2.19,1.73-4.67,1.73-7.3,0-.25-.01-.5-.02-.75.46,1.55.7,3.2.7,4.9Z"/>
    <path class="st1" d="M122.5,53.28c-.59-3.48-2.24-6.6-4.61-9.02-3.1-3.18-7.43-5.15-12.23-5.15h-44.13l-1.78,5.15-3.11,9.02-1.87,5.4-3.42,9.91-1.63,4.73-6.06,17.55-1.49,4.34h24.16l1.49-4.34,1.09-3.14,1.87-5.41,3.1-9h31.78c4.58,0,8.74-1.79,11.8-4.73,2.7-2.58,4.56-6.03,5.12-9.91.12-.8.18-1.63.18-2.47,0-1-.09-1.98-.26-2.93ZM117.42,58.18c-.02.17-.05.34-.09.5-.47,2.56-1.75,4.82-3.55,6.55-2.18,2.09-5.14,3.36-8.4,3.36h-36.17l-1.63,4.73-3.1,9-1.87,5.41-1.09,3.14h-12.66l1.09-3.14,1.87-5.41,3.1-9,1.63-4.73,3.42-9.91,1.87-5.4,3.11-9.02h40.43c3.42,0,6.5,1.4,8.7,3.66,1.45,1.47,2.51,3.31,3.05,5.36.09.35.17.7.23,1.06.12.67.19,1.37.19,2.08,0,.6-.05,1.19-.13,1.76Z"/>
    <path class="st0" d="M112.72,61.42c-2.06-1.69-4.89-2.74-8.02-2.74h-38.79l1.87-5.4h37.23c3.27,0,6.06,2.24,7.18,5.4.31.85.49,1.78.53,2.74Z"/>
  </g>
</svg>